<svg width="217" height="237" viewBox="0 0 217 237" fill="none" xmlns="http://www.w3.org/2000/svg">
<g clip-path="url(#clip0_13_61)">
<mask id="mask0_13_61" style="mask-type:alpha" maskUnits="userSpaceOnUse" x="0" y="21" width="217" height="216">
<path d="M108.8 237C168.447 237 216.8 188.647 216.8 129C216.8 69.3532 168.447 21 108.8 21C49.1532 21 0.799988 69.3532 0.799988 129C0.799988 188.647 49.1532 237 108.8 237Z" fill="white"/>
</mask>
<g mask="url(#mask0_13_61)">
<path d="M108.8 237C168.447 237 216.8 188.647 216.8 129C216.8 69.3532 168.447 21 108.8 21C49.1532 21 0.799988 69.3532 0.799988 129C0.799988 188.647 49.1532 237 108.8 237Z" fill="#972DC2"/>
<path d="M217.245 21H0.799988V237H217.245V21Z" fill="#8A4CA8"/>
</g>
<mask id="mask1_13_61" style="mask-type:alpha" maskUnits="userSpaceOnUse" x="-10" y="-15" width="238" height="252">
<path d="M-10 129V-15H227.6V129H216.8C216.8 188.647 168.447 237 108.8 237C49.1533 237 0.8 188.647 0.8 129H-10Z" fill="white"/>
</mask>
<g mask="url(#mask1_13_61)">
<mask id="mask2_13_61" style="mask-type:alpha" maskUnits="userSpaceOnUse" x="18" y="17" width="181" height="220">
<path d="M108.8 17.4C136.635 17.4 159.2 39.9648 159.2 67.8L159.201 73.3495C164.308 74.2068 168.2 78.6489 168.2 84V96.6C168.2 102.047 164.167 106.552 158.925 107.293C157.065 125.118 145.914 140.18 130.401 147.549L130.4 164.1H134C169.788 164.1 198.8 193.112 198.8 228.9V237H18.8V228.9C18.8 193.112 47.8119 164.1 83.6 164.1H87.2L87.2001 147.55C71.6865 140.18 60.5351 125.118 58.6746 107.293C53.4327 106.552 49.4 102.047 49.4 96.6V84C49.4 78.6486 53.2921 74.2062 58.4001 73.3493L58.4 67.8C58.4 39.9648 80.9648 17.4 108.8 17.4Z" fill="white"/>
</mask>
<g mask="url(#mask2_13_61)">
<path d="M108.8 17.4C136.635 17.4 159.2 39.9648 159.2 67.8L159.201 73.3495C164.308 74.2068 168.2 78.6489 168.2 84V96.6C168.2 102.047 164.167 106.552 158.925 107.293C157.065 125.118 145.914 140.18 130.401 147.549L130.4 164.1H134C169.788 164.1 198.8 193.112 198.8 228.9V237H18.8V228.9C18.8 193.112 47.8119 164.1 83.6 164.1H87.2L87.2001 147.55C71.6865 140.18 60.5351 125.118 58.6746 107.293C53.4327 106.552 49.4 102.047 49.4 96.6V84C49.4 78.6486 53.2921 74.2062 58.4001 73.3493L58.4 67.8C58.4 39.9648 80.9648 17.4 108.8 17.4Z" fill="#D0C6AC"/>
<path d="M228.384 17.4H-10V237.755H228.384V17.4Z" fill="#FFDBB4"/>
<path fill-rule="evenodd" clip-rule="evenodd" d="M58.4 102C58.4 129.835 80.9648 152.4 108.8 152.4C136.635 152.4 159.2 129.835 159.2 102V109.2C159.2 137.035 136.635 159.6 108.8 159.6C80.9648 159.6 58.4 137.035 58.4 109.2V102Z" fill="black" fill-opacity="0.1"/>
</g>
<mask id="mask3_13_61" style="mask-type:alpha" maskUnits="userSpaceOnUse" x="18" y="149" width="181" height="88">
<path d="M130.401 149.764C146.691 151.587 159.2 156.597 159.2 169.569L159.194 169.18C182.467 179.01 198.8 202.047 198.8 228.9V237H18.8V228.9C18.8 202.047 35.1327 179.01 58.4058 169.18C58.6526 156.496 71.0734 151.568 87.1996 149.764L87.2 166.8C87.2 178.729 96.8706 188.4 108.8 188.4C120.729 188.4 130.4 178.729 130.4 166.8L130.401 149.764Z" fill="white"/>
</mask>
<g mask="url(#mask3_13_61)">
<path d="M130.401 149.764C146.691 151.587 159.2 156.597 159.2 169.569L159.194 169.18C182.467 179.01 198.8 202.047 198.8 228.9V237H18.8V228.9C18.8 202.047 35.1327 179.01 58.4058 169.18C58.6526 156.496 71.0734 151.568 87.1996 149.764L87.2 166.8C87.2 178.729 96.8706 188.4 108.8 188.4C120.729 188.4 130.4 178.729 130.4 166.8L130.401 149.764Z" fill="#B7C1DB"/>
<path d="M228.491 138H-10V237H228.491V138Z" fill="#293347"/>
<path fill-rule="evenodd" clip-rule="evenodd" d="M81.7998 193.565L81.8 237H75.5L75.499 190.335C77.4826 191.514 79.5916 192.594 81.7998 193.565ZM142.101 190.334L142.1 226.65C142.1 228.39 140.69 229.8 138.95 229.8C137.21 229.8 135.8 228.39 135.8 226.65L135.801 193.565C138.009 192.594 140.118 191.513 142.101 190.334Z" fill="#F4F4F4"/>
<path fill-rule="evenodd" clip-rule="evenodd" d="M145.733 149.451C159.28 152.013 168.65 157.118 168.65 167.077C168.65 184.818 138.916 199.2 108.8 199.2C78.6839 199.2 48.95 184.818 48.95 167.077C48.95 157.118 58.3196 152.013 71.8667 149.451C63.6892 152.466 58.4 157.534 58.4 165.969C58.4 184.322 83.4391 199.2 108.8 199.2C134.161 199.2 159.2 184.322 159.2 165.969C159.2 157.71 154.13 152.679 146.241 149.642L145.733 149.451Z" fill="black" fill-opacity="0.16"/>
</g>
<mask id="mask4_13_61" style="mask-type:alpha" maskUnits="userSpaceOnUse" x="91" y="117" width="35" height="18">
<path d="M91.8061 119.215C92.7582 127.758 100.003 134.4 108.8 134.4C117.624 134.4 124.887 127.717 125.803 119.136C125.876 118.445 125.105 117.3 124.139 117.3C110.734 117.3 100.464 117.3 93.5782 117.3C92.606 117.3 91.7109 118.361 91.8061 119.215Z" fill="white"/>
</mask>
<g mask="url(#mask4_13_61)">
<path d="M91.8061 119.215C92.7582 127.758 100.003 134.4 108.8 134.4C117.624 134.4 124.887 127.717 125.803 119.136C125.876 118.445 125.105 117.3 124.139 117.3C110.734 117.3 100.464 117.3 93.5782 117.3C92.606 117.3 91.7109 118.361 91.8061 119.215Z" fill="black" fill-opacity="0.7"/>
<path fill-rule="evenodd" clip-rule="evenodd" d="M99.8 107.4H118.7C121.185 107.4 123.2 109.415 123.2 111.9V117.3C123.2 119.785 121.185 121.8 118.7 121.8H99.8C97.3148 121.8 95.3 119.785 95.3 117.3V111.9C95.3 109.415 97.3148 107.4 99.8 107.4Z" fill="white"/>
<path d="M104.3 147C109.768 147 114.2 142.568 114.2 137.1C114.2 131.632 109.768 127.2 104.3 127.2C98.8324 127.2 94.4 131.632 94.4 137.1C94.4 142.568 98.8324 147 104.3 147Z" fill="#FF4F6D"/>
<path d="M113.3 147C118.768 147 123.2 142.568 123.2 137.1C123.2 131.632 118.768 127.2 113.3 127.2C107.832 127.2 103.4 131.632 103.4 137.1C103.4 142.568 107.832 147 113.3 147Z" fill="#FF4F6D"/>
</g>
<path fill-rule="evenodd" clip-rule="evenodd" d="M100 104C100 106.761 104.029 109 109 109C113.971 109 118 106.761 118 104" fill="black" fill-opacity="0.1"/>
<path fill-rule="evenodd" clip-rule="evenodd" d="M100 138C100 139.657 104.253 141 109.5 141C114.747 141 119 139.657 119 138" fill="black" fill-opacity="0.1"/>
<path fill-rule="evenodd" clip-rule="evenodd" d="M129 116C129 113.239 120.046 111 109 111C97.9543 111 89 113.239 89 116" fill="#665848" fill-opacity="0.38"/>
<path fill-rule="evenodd" clip-rule="evenodd" d="M72.9442 86.2026C74.6061 82.7837 78.348 80.4 82.6979 80.4C87.0324 80.4 90.7633 82.7669 92.4339 86.1664C92.9301 87.1763 92.2239 88.0027 91.5116 87.3903C89.3056 85.4938 86.1729 84.3094 82.6979 84.3094C79.3315 84.3094 76.2864 85.4209 74.0938 87.2145C73.2922 87.8703 72.4581 87.2025 72.9442 86.2026Z" fill="black" fill-opacity="0.6"/>
<path fill-rule="evenodd" clip-rule="evenodd" d="M125.144 86.2026C126.806 82.7837 130.548 80.4 134.898 80.4C139.232 80.4 142.963 82.7669 144.634 86.1664C145.13 87.1763 144.424 88.0027 143.712 87.3903C141.506 85.4938 138.373 84.3094 134.898 84.3094C131.532 84.3094 128.486 85.4209 126.294 87.2145C125.492 87.8703 124.658 87.2025 125.144 86.2026Z" fill="black" fill-opacity="0.6"/>
<path fill-rule="evenodd" clip-rule="evenodd" d="M81.5048 64.3336C76.5833 64.575 68.6266 68.3726 68.8316 73.643C68.8384 73.8155 69.077 73.8912 69.1936 73.7585C71.5284 71.0951 88.1064 68.4038 93.9454 69.83C94.4798 69.9607 94.8858 69.4009 94.5473 68.9965C91.647 65.5331 85.9141 64.1127 81.5048 64.3336Z" fill="black" fill-opacity="0.6"/>
<path fill-rule="evenodd" clip-rule="evenodd" d="M132.276 64.3336C137.198 64.575 145.154 68.3726 144.949 73.643C144.942 73.8155 144.704 73.8912 144.587 73.7585C142.252 71.0951 125.674 68.4038 119.835 69.83C119.301 69.9607 118.895 69.4009 119.233 68.9965C122.134 65.5331 127.867 64.1127 132.276 64.3336Z" fill="black" fill-opacity="0.6"/>
<mask id="mask5_13_61" style="mask-type:alpha" maskUnits="userSpaceOnUse" x="-10" y="-15" width="238" height="252">
<path d="M227.6 -15H-10V237H227.6V-15Z" fill="white"/>
</mask>
<g mask="url(#mask5_13_61)">
<mask id="mask6_13_61" style="mask-type:alpha" maskUnits="userSpaceOnUse" x="55" y="0" width="106" height="75">
<path d="M151.135 20.9284C148.651 18.3903 145.767 16.2361 142.962 14.0759C142.343 13.5997 141.715 13.135 141.109 12.6406C140.972 12.5283 139.563 11.5192 139.394 11.1477C138.988 10.2542 139.224 10.95 139.28 9.88371C139.35 8.53544 142.1 4.72738 140.048 3.85409C139.146 3.47 137.536 4.49215 136.67 4.82974C134.977 5.49044 133.263 6.0539 131.512 6.53976C132.351 4.86869 133.95 1.52354 130.944 2.41886C128.603 3.1164 126.421 4.90976 124.068 5.75345C124.847 4.47735 127.96 0.523128 125.147 0.302091C124.271 0.233243 121.724 1.87532 120.782 2.2256C117.958 3.27493 115.075 3.95314 112.111 4.48731C102.033 6.30363 90.2475 5.78576 80.9231 10.3741C73.7345 13.9113 66.6362 19.3998 62.4835 26.3888C58.481 33.1253 56.984 40.4977 56.1462 48.2172C55.5315 53.8823 55.4816 59.7383 55.7691 65.424C55.863 67.2868 56.0725 75.8737 58.7787 73.2732C60.1271 71.9775 60.1171 66.7454 60.4567 64.9743C61.1325 61.4507 61.783 57.9114 62.9098 54.5004C64.8954 48.4895 67.2377 45.6867 72.1842 41.5468C75.3586 38.8904 77.5877 35.3 80.6254 32.6201C81.9899 31.4165 80.9487 31.5418 83.1426 31.6997C84.6164 31.8057 86.0969 31.8462 87.5737 31.8848C90.9901 31.9736 94.4119 31.9509 97.8292 31.963C104.711 31.9878 111.561 32.085 118.437 31.7248C121.492 31.5647 124.556 31.4781 127.603 31.1954C129.306 31.0375 132.326 29.9465 133.728 30.7802C135.01 31.543 136.342 34.0336 137.263 35.0536C139.438 37.4642 142.032 39.3053 144.576 41.2819C149.881 45.4034 152.559 46.98 154.17 53.4209C155.775 59.8379 155.325 65.7913 157.312 72.1063C157.662 73.2166 158.586 75.1305 159.726 73.415C159.937 73.0964 159.883 71.3451 159.883 70.3374C159.883 66.2696 160.913 63.2175 160.9 59.1232C160.849 46.6744 160.447 30.4417 151.135 20.9284Z" fill="white"/>
</mask>
<g mask="url(#mask6_13_61)">
<path d="M151.135 20.9284C148.651 18.3903 145.767 16.2361 142.962 14.0759C142.343 13.5997 141.715 13.135 141.109 12.6406C140.972 12.5283 139.563 11.5192 139.394 11.1477C138.988 10.2542 139.224 10.95 139.28 9.88371C139.35 8.53544 142.1 4.72738 140.048 3.85409C139.146 3.47 137.536 4.49215 136.67 4.82974C134.977 5.49044 133.263 6.0539 131.512 6.53976C132.351 4.86869 133.95 1.52354 130.944 2.41886C128.603 3.1164 126.421 4.90976 124.068 5.75345C124.847 4.47735 127.96 0.523128 125.147 0.302091C124.271 0.233243 121.724 1.87532 120.782 2.2256C117.958 3.27493 115.075 3.95314 112.111 4.48731C102.033 6.30363 90.2475 5.78576 80.9231 10.3741C73.7345 13.9113 66.6362 19.3998 62.4835 26.3888C58.481 33.1253 56.984 40.4977 56.1462 48.2172C55.5315 53.8823 55.4816 59.7383 55.7691 65.424C55.863 67.2868 56.0725 75.8737 58.7787 73.2732C60.1271 71.9775 60.1171 66.7454 60.4567 64.9743C61.1325 61.4507 61.783 57.9114 62.9098 54.5004C64.8954 48.4895 67.2377 45.6867 72.1842 41.5468C75.3586 38.8904 77.5877 35.3 80.6254 32.6201C81.9899 31.4165 80.9487 31.5418 83.1426 31.6997C84.6164 31.8057 86.0969 31.8462 87.5737 31.8848C90.9901 31.9736 94.4119 31.9509 97.8292 31.963C104.711 31.9878 111.561 32.085 118.437 31.7248C121.492 31.5647 124.556 31.4781 127.603 31.1954C129.306 31.0375 132.326 29.9465 133.728 30.7802C135.01 31.543 136.342 34.0336 137.263 35.0536C139.438 37.4642 142.032 39.3053 144.576 41.2819C149.881 45.4034 152.559 46.98 154.17 53.4209C155.775 59.8379 155.325 65.7913 157.312 72.1063C157.662 73.2166 158.586 75.1305 159.726 73.415C159.937 73.0964 159.883 71.3451 159.883 70.3374C159.883 66.2696 160.913 63.2175 160.9 59.1232C160.849 46.6744 160.447 30.4417 151.135 20.9284Z" fill="black"/>
<path d="M229.007 -15H-10.1V237.406H229.007V-15Z" fill="#3E2520"/>
</g>
</g>
</g>
<path d="M102.5 88C102.5 97.0619 94.271 104.5 84 104.5C73.729 104.5 65.5 97.0619 65.5 88C65.5 78.9381 73.729 71.5 84 71.5C94.271 71.5 102.5 78.9381 102.5 88Z" stroke="black"/>
<path d="M151.5 88C151.5 97.0619 143.271 104.5 133 104.5C122.729 104.5 114.5 97.0619 114.5 88C114.5 78.9381 122.729 71.5 133 71.5C143.271 71.5 151.5 78.9381 151.5 88Z" stroke="black"/>
<line x1="101" y1="80.5" x2="116" y2="80.5" stroke="black"/>
<path d="M59 111.5L82 119L86.5 128.5L90 134L94 137H123.5L126.5 134L130 128.5L136 119L158.5 111.5L157.134 116.183C151.583 135.215 135.312 149.169 115.657 151.756L110 152.5H108.215C84.7315 152.5 64.4126 136.158 59.3776 113.22L59 111.5Z" fill="#665848" fill-opacity="0.42"/>
</g>
<defs>
<clipPath id="clip0_13_61">
<rect width="217" height="237" fill="white"/>
</clipPath>
</defs>
</svg>
